HIERARCHY
ROOT Hips
{
	OFFSET -0.001795 -0.223333 0.028219
	CHANNELS 6 Xposition Yposition Zposition Zrotation Yrotation Xrotation 
	JOINT LeftUpLeg
	{
		OFFSET 0.069520 -0.091406 -0.006815
		CHANNELS 3 Zrotation Yrotation Xrotation
		JOINT LeftLeg
		{
			OFFSET 0.034277 -0.375199 -0.004496
			CHANNELS 3 Zrotation Yrotation Xrotation
			JOINT LeftFoot
			{
				OFFSET -0.013596 -0.397961 -0.043693
				CHANNELS 3 Zrotation Yrotation Xrotation
				JOINT LeftToe
				{
					OFFSET 0.026358 -0.055791 0.119288
					CHANNELS 3 Zrotation Yrotation Xrotation
					End Site
					{
						OFFSET 0.000000 0.000000 0.000000
					}
				}
			}
		}
	}
	JOINT RightUpLeg
	{
		OFFSET -0.067670 -0.090522 -0.004320
		CHANNELS 3 Zrotation Yrotation Xrotation
		JOINT RightLeg
		{
			OFFSET -0.038290 -0.382569 -0.008850
			CHANNELS 3 Zrotation Yrotation Xrotation
			JOINT RightFoot
			{
				OFFSET 0.015774 -0.398415 -0.042312
				CHANNELS 3 Zrotation Yrotation Xrotation
				JOINT RightToe
				{
					OFFSET -0.025372 -0.048144 0.123348
					CHANNELS 3 Zrotation Yrotation Xrotation
					End Site
					{
						OFFSET 0.000000 0.000000 0.000000
					}
				}
			}
		}
	}
	JOINT Spine
	{
		OFFSET -0.002533 0.108963 -0.026696
		CHANNELS 3 Zrotation Yrotation Xrotation
		JOINT Spine1
		{
			OFFSET 0.005487 0.135180 0.001092
			CHANNELS 3 Zrotation Yrotation Xrotation
			JOINT Spine2
			{
				OFFSET 0.001457 0.052922 0.025425
				CHANNELS 3 Zrotation Yrotation Xrotation
				JOINT Neck
				{
					OFFSET -0.002778 0.213870 -0.042857
					CHANNELS 3 Zrotation Yrotation Xrotation
					JOINT Head
					{
						OFFSET 0.005152 0.064970 0.051349
						CHANNELS 3 Zrotation Yrotation Xrotation
						End Site
						{
							OFFSET 0.000000 0.000000 0.000000
						}
					}
				}
				JOINT LeftShoulder
				{
					OFFSET 0.078845 0.121749 -0.034090
					CHANNELS 3 Zrotation Yrotation Xrotation
					JOINT LeftArm
					{
						OFFSET 0.090977 0.030469 -0.008868
						CHANNELS 3 Zrotation Yrotation Xrotation
						JOINT LeftForeArm
						{
							OFFSET 0.259612 -0.012772 -0.027456
							CHANNELS 3 Zrotation Yrotation Xrotation
							JOINT LeftHand
							{
								OFFSET 0.249234 0.008986 -0.001171
								CHANNELS 3 Zrotation Yrotation Xrotation
								End Site
								{
									OFFSET 0.000000 0.000000 0.000000
								}
							}
						}
					}
				}
				JOINT RightShoulder
				{
					OFFSET -0.081759 0.118833 -0.038615
					CHANNELS 3 Zrotation Yrotation Xrotation
					JOINT RightArm
					{
						OFFSET -0.096012 0.032551 -0.009143
						CHANNELS 3 Zrotation Yrotation Xrotation
						JOINT RightForeArm
						{
							OFFSET -0.253742 -0.013329 -0.021401
							CHANNELS 3 Zrotation Yrotation Xrotation
							JOINT RightHand
							{
								OFFSET -0.255298 0.007772 -0.005559
								CHANNELS 3 Zrotation Yrotation Xrotation
								End Site
								{
									OFFSET 0.000000 0.000000 0.000000
								}
							}
						}
					}
				}
			}
		}
	}
}
MOTION
Frames: 14
Frame Time: 0.050000
-0.165957 0.879382 1.033236 -1.149481 -2.284194 15.480786 5.552758 -2.215166 -70.742635 -7.040035 3.368484 63.249160 8.317413 17.558655 1.963708 0.000000 0.000000 0.000000 3.718129 6.723218 -47.076203 8.525792 -2.309681 48.715189 -9.525902 -23.760654 3.356860 0.000000 0.000000 0.000000 -8.695648 3.108558 54.637460 10.334749 -1.275208 -26.891370 5.271425 9.218772 33.838161 -3.490429 4.912711 -23.457535 0.000000 0.000000 0.000000 -33.931920 2.232900 -8.508058 -49.537097 -2.935040 -6.265828 -12.601642 -61.512076 10.140880 0.000000 0.000000 0.000000 10.112753 0.851347 1.290655 62.425207 11.107645 -2.571967 -11.594371 58.759619 0.432218 0.000000 0.000000 0.000000 
-0.167382 0.873564 1.057255 -1.490358 -2.508829 15.583740 5.517652 -2.049138 -67.765964 -6.654091 2.325638 46.269421 7.841327 16.878374 3.977442 0.000000 0.000000 0.000000 3.977551 6.773903 -46.531862 9.796874 -3.055712 50.370090 -10.354533 -25.443926 4.188110 0.000000 0.000000 0.000000 -8.774912 3.292988 55.680046 10.391491 -1.095972 -28.517057 5.267810 9.203667 35.824142 -2.478539 4.382744 -25.183048 0.000000 0.000000 0.000000 -32.801105 1.685809 -7.749440 -50.688584 -2.122745 -7.003797 -11.795509 -63.618752 10.143277 0.000000 0.000000 0.000000 8.885566 0.863376 1.223743 65.162224 10.482557 -2.818660 -13.347524 58.030585 -0.316560 0.000000 0.000000 0.000000 
-0.166524 0.863103 1.084386 -2.638958 -3.443358 15.726544 6.093237 -1.214261 -63.545770 -6.202860 1.771795 35.015370 6.920846 15.231523 5.496328 0.000000 0.000000 0.000000 4.540062 7.060217 -45.810336 11.390842 -3.862390 52.319539 -11.523961 -28.174810 2.452895 0.000000 0.000000 0.000000 -8.815382 3.614388 55.878625 9.620785 -0.981011 -28.454285 5.473190 8.644946 35.697723 -1.925084 3.901617 -24.958963 0.000000 0.000000 0.000000 -31.371191 3.239875 -8.093778 -52.504427 -2.291059 -7.374058 -13.434194 -62.840269 11.270687 0.000000 0.000000 0.000000 7.884393 1.465489 1.333044 67.352256 9.230711 -3.415649 -15.699987 58.388887 -1.682367 0.000000 0.000000 0.000000 
-0.162876 0.849065 1.115062 -3.648028 -4.587976 16.484447 5.602341 -1.014758 -61.839673 -5.178568 1.423704 34.597362 8.168329 17.406643 6.236013 0.000000 0.000000 0.000000 4.561088 7.309929 -45.868622 13.104850 -4.792042 55.136339 -12.401379 -30.490805 0.723037 0.000000 0.000000 0.000000 -8.637126 3.803317 54.966164 9.774472 -1.075376 -27.856411 4.805399 8.410022 35.669775 -2.064899 3.848652 -24.850938 0.000000 0.000000 0.000000 -30.193720 3.157563 -7.389447 -53.618113 -2.776094 -7.488443 -10.846016 -63.092386 9.954859 0.000000 0.000000 0.000000 7.664773 0.364293 0.734655 69.069848 7.896353 -4.226016 -13.285943 59.348713 -0.476318 0.000000 0.000000 0.000000 
-0.156332 0.836930 1.146219 -3.918534 -5.912004 16.993425 5.603109 -0.509404 -62.148705 -5.824291 2.015729 38.495306 8.710508 18.206133 5.111892 0.000000 0.000000 0.000000 3.772684 7.517244 -47.081915 14.469146 -5.723437 60.081608 -13.472550 -32.972286 0.186778 0.000000 0.000000 0.000000 -8.787238 4.223950 54.084299 9.389051 -1.033596 -27.617028 4.064024 6.898002 36.225331 -2.487436 3.783646 -25.567488 0.000000 0.000000 0.000000 -29.967252 4.723804 -7.531695 -53.463516 -3.357780 -7.534859 -12.026225 -63.040441 11.261776 0.000000 0.000000 0.000000 8.444059 -0.571025 0.115880 68.405440 6.482491 -5.584903 -9.672519 61.263594 1.157232 0.000000 0.000000 0.000000 
-0.148557 0.831111 1.175138 -3.745732 -7.207935 17.745228 5.153007 -0.252711 -63.565165 -6.553614 2.731396 42.476583 9.580765 19.674467 3.699545 0.000000 0.000000 0.000000 1.586772 7.529415 -50.137510 16.451849 -7.406826 65.100597 -14.033367 -33.595566 2.281577 0.000000 0.000000 0.000000 -9.023010 4.691292 53.411117 8.781101 -1.069323 -26.284265 3.027818 5.851866 35.382835 -3.465998 4.061970 -25.425829 0.000000 0.000000 0.000000 -27.202458 5.136896 -6.593454 -55.047979 -4.994795 -7.153137 -10.587193 -63.368571 10.889295 0.000000 0.000000 0.000000 9.429816 -2.032316 -0.784472 68.544864 5.422266 -6.390542 -6.652040 62.077077 2.538494 0.000000 0.000000 0.000000 
-0.141417 0.829368 1.200827 -3.365869 -5.999486 17.721982 3.661356 -1.610761 -64.682798 -6.370999 2.784368 48.344315 9.670175 19.966592 2.011213 0.000000 0.000000 0.000000 -0.799675 6.687187 -52.573867 17.881126 -10.067596 71.068401 -14.053852 -31.603278 9.055695 0.000000 0.000000 0.000000 -8.519512 4.058721 53.596614 8.658981 -1.165101 -25.064413 2.580160 3.770294 35.371875 -4.424959 4.333513 -25.355835 0.000000 0.000000 0.000000 -29.267520 5.446988 -6.480027 -53.145911 -7.242962 -6.179333 -6.197013 -64.444726 8.863295 0.000000 0.000000 0.000000 8.070050 -2.399980 -1.155310 68.473715 5.272905 -6.719601 -0.604356 63.090936 5.729841 0.000000 0.000000 0.000000 
-0.136212 0.828826 1.224178 -4.415758 -5.931729 18.340977 3.857236 -1.460542 -66.174412 -6.244902 2.946074 53.123099 9.875355 20.360326 1.469460 0.000000 0.000000 0.000000 -3.113058 6.421392 -57.424826 20.250822 -13.569249 76.086496 -14.570980 -31.140627 14.158873 0.000000 0.000000 0.000000 -8.647665 4.135543 53.822377 9.400984 -1.303200 -25.096652 2.194021 4.263948 35.690766 -4.741558 4.592450 -24.638284 0.000000 0.000000 0.000000 -27.699719 5.276886 -6.239310 -54.128126 -7.482621 -6.208320 -2.658362 -65.769896 6.799687 0.000000 0.000000 0.000000 9.370656 -2.834473 -1.350419 66.795757 5.700638 -6.453683 -0.244607 62.667280 6.004132 0.000000 0.000000 0.000000 
-0.133312 0.828052 1.246508 -4.720186 -5.198798 18.569551 3.990664 -1.652938 -66.315712 -6.418322 3.107980 55.819272 10.081784 20.828098 0.544977 0.000000 0.000000 0.000000 -5.687738 5.431166 -61.277974 21.557164 -15.541206 76.422734 -15.235894 -32.120360 14.310174 0.000000 0.000000 0.000000 -8.841288 4.110621 54.541168 9.616108 -1.303190 -25.368954 3.063779 3.971549 36.181185 -6.374072 5.558062 -24.051324 0.000000 0.000000 0.000000 -27.908341 4.363438 -5.667760 -53.531022 -8.339489 -5.825266 -0.286487 -66.714677 5.349904 0.000000 0.000000 0.000000 8.935235 -2.916884 -1.357705 67.114726 6.005530 -6.307956 1.324257 61.465619 6.848082 0.000000 0.000000 0.000000 
-0.131732 0.827058 1.268641 -5.378231 -4.814789 18.530918 4.545656 -1.423085 -65.495590 -6.529130 3.237464 56.898271 10.219866 21.159525 -1.159118 0.000000 0.000000 0.000000 -6.414415 5.325573 -64.776931 21.272702 -15.213792 75.027691 -14.839922 -31.837047 13.125526 0.000000 0.000000 0.000000 -8.424571 3.834795 55.492984 9.563124 -1.379970 -24.593474 2.895035 4.090848 35.690652 -6.647338 5.813568 -22.527163 0.000000 0.000000 0.000000 -28.902161 4.060891 -5.687592 -52.366667 -8.201834 -5.791498 3.270097 -68.694789 3.039402 0.000000 0.000000 0.000000 11.050240 -1.928449 -0.903047 66.098221 6.450020 -6.136201 -2.151802 62.139292 4.961357 0.000000 0.000000 0.000000 
-0.130367 0.825536 1.289951 -6.004899 -4.458624 18.786742 5.471354 -0.975683 -64.009198 -6.875837 3.508049 57.021384 10.618389 22.173557 -4.346776 0.000000 0.000000 0.000000 -7.700956 4.886596 -69.136100 22.268036 -15.455670 71.062982 -15.152613 -32.590530 12.736452 0.000000 0.000000 0.000000 -8.503834 3.936656 57.263870 10.719377 -1.478230 -25.677186 3.621588 5.310525 35.789129 -6.666766 6.053153 -21.688494 0.000000 0.000000 0.000000 -30.362383 3.049136 -5.885624 -51.192861 -7.912601 -5.618008 1.858371 -69.650213 3.573628 0.000000 0.000000 0.000000 10.623369 -2.129553 -0.776447 66.623858 6.269544 -6.037424 -5.919128 61.745217 3.119457 0.000000 0.000000 0.000000 
-0.129047 0.825287 1.310947 -6.841951 -4.682618 18.600073 6.499269 -0.285155 -62.518479 -7.361798 4.009158 57.275701 10.951478 23.019550 -6.209729 0.000000 0.000000 0.000000 -8.317258 4.898325 -72.178816 21.968512 -13.593044 64.267442 -14.754104 -32.006401 13.822534 0.000000 0.000000 0.000000 -8.397768 4.101138 58.909231 10.694324 -1.468425 -25.800239 4.405484 6.299610 35.192063 -6.932471 6.353174 -21.284647 0.000000 0.000000 0.000000 -30.327106 2.619324 -6.048230 -50.967500 -6.892003 -5.816255 2.735478 -69.888786 2.579488 0.000000 0.000000 0.000000 10.667895 -2.160713 -0.654214 66.298420 6.486528 -5.712741 -8.671811 60.702642 1.657529 0.000000 0.000000 0.000000 
-0.127968 0.826562 1.332260 -7.228895 -5.023565 18.308992 6.831642 -0.010708 -60.640206 -7.248098 4.075248 57.213291 10.956474 23.126899 -7.631443 0.000000 0.000000 0.000000 -8.072814 5.300290 -72.950786 20.594958 -10.998527 57.146351 -14.467771 -31.488866 15.448997 0.000000 0.000000 0.000000 -7.784741 3.893166 59.813795 10.202660 -1.355566 -26.122820 4.515029 6.425545 35.137465 -6.774602 6.239121 -22.359335 0.000000 0.000000 0.000000 -30.613503 2.911379 -6.334175 -51.488456 -6.945715 -5.825079 1.826408 -69.241836 3.227355 0.000000 0.000000 0.000000 9.923435 -1.613851 -0.369368 67.189463 6.897811 -5.433097 -11.401391 59.638802 0.172365 0.000000 0.000000 0.000000 
-0.127785 0.828798 1.354485 -7.133797 -4.494860 18.764932 6.992874 -0.116679 -59.221091 -7.660380 4.249233 56.373994 10.854488 23.208470 -10.524708 0.000000 0.000000 0.000000 -7.927785 5.161736 -72.750211 17.578715 -7.577588 47.601630 -13.122473 -29.336278 17.130393 0.000000 0.000000 0.000000 -6.803310 3.103232 60.058566 9.046106 -1.087392 -26.601758 4.752506 6.391313 34.297224 -5.945753 5.662233 -23.821065 0.000000 0.000000 0.000000 -29.396862 3.434054 -6.541760 -52.983646 -6.812366 -5.894916 -1.135392 -68.168345 5.112520 0.000000 0.000000 0.000000 8.183194 -2.211847 -0.690402 68.638745 6.496760 -5.333213 -11.488258 58.879781 0.017520 0.000000 0.000000 0.000000 
